<svg width="92" height="24" viewBox="0 0 92 24" fill="none" xmlns="http://www.w3.org/2000/svg">
<path fill-rule="evenodd" clip-rule="evenodd" d="M84.8204 16.3839C84.8204 16.3839 84.9874 16.3839 85.3096 16.3839C85.3948 16.3792 85.4794 16.3999 85.5528 16.4435C85.6261 16.4871 85.6848 16.5515 85.7214 16.6285C85.7214 16.6285 86.3658 17.8219 86.5388 18.1083C86.7119 18.3947 86.5388 18.3589 86.4672 18.353C86.4672 18.353 86.2823 18.353 84.4086 18.353C83.708 18.2994 83.0496 17.9968 82.5527 17.4999C82.0558 17.003 81.7532 16.3446 81.6996 15.644V11.4671H80.2258V9.89181C80.2258 9.677 80.4704 9.64717 80.4704 9.64717H81.7056V8.08382C81.7079 8.01067 81.7327 7.94 81.7764 7.88132C81.8201 7.82264 81.8808 7.77878 81.9502 7.75564L83.3226 7.36182C83.5255 7.30215 83.6747 7.36182 83.6747 7.57066V9.72474H85.8109C86.0137 9.72474 86.0555 9.96938 86.0555 9.96938V11.5148H83.6687V15.1308C83.6687 16.181 84.8204 16.366 84.8204 16.366V16.3839ZM78.4954 18.174H77.1826C76.9261 18.174 76.938 17.8458 76.938 17.8458V11.7833C76.938 11.4134 76.4427 11.2881 76.4427 11.2881H73.7337C73.328 11.2881 73.322 11.7833 73.322 11.7833V17.9412C73.3228 17.9739 73.3171 18.0063 73.3051 18.0367C73.2932 18.0671 73.2753 18.0948 73.2525 18.1181C73.2297 18.1415 73.2025 18.16 73.1724 18.1727C73.1423 18.1853 73.11 18.1919 73.0774 18.1919H71.7646C71.4782 18.1919 71.52 17.8637 71.52 17.8637V10.22C71.52 9.6233 72.2599 9.48009 72.2599 9.48009H78.0061C78.6028 9.48009 78.74 10.22 78.74 10.22V17.7801C78.74 18.2098 78.4954 18.1919 78.4954 18.1919V18.174ZM69.1451 14.737H64.0553V15.9721C64.0553 16.4137 64.652 16.5688 64.652 16.5688H68.7096C68.8039 16.575 68.896 16.6004 68.9801 16.6435C69.0643 16.6866 69.1387 16.7465 69.1988 16.8195C69.1988 16.8195 69.5628 17.5653 69.6941 17.8875C69.8254 18.2098 69.4495 18.2157 69.4495 18.2157H63.3393C62.5994 18.2157 62.4383 17.3087 62.4383 17.3087V10.3214C62.4383 9.92165 63.035 9.72474 63.035 9.72474H69.1929C69.7896 9.72474 69.9328 10.4587 69.9328 10.4587V13.9971C69.9328 14.5938 69.1929 14.731 69.1929 14.731L69.1451 14.737ZM68.2382 11.7833C68.2382 11.7833 68.1904 11.3716 67.8324 11.3716H64.4611C64.4611 11.3716 64.0553 11.479 64.0553 11.7833V12.7082C64.0553 12.8164 64.0979 12.9202 64.1738 12.9973C64.2497 13.0743 64.3529 13.1184 64.4611 13.1199H67.8324C67.9443 13.0919 68.0441 13.0286 68.1172 12.9394C68.1902 12.8502 68.2327 12.7399 68.2382 12.6247V11.7833ZM60.5229 18.1919H59.2101C59.0371 18.1919 58.9655 17.9412 58.9655 17.9412V11.7833C58.9655 11.4015 58.4702 11.2881 58.4702 11.2881H57.2411C56.895 11.2881 56.8293 11.7833 56.8293 11.7833V17.9412C56.8293 18.1501 56.5847 18.1919 56.5847 18.1919H55.272C55.087 18.1919 55.0213 17.9412 55.0213 17.9412V11.7833C55.0213 11.3895 54.532 11.2881 54.532 11.2881H53.2969C52.921 11.2881 52.8911 11.7833 52.8911 11.7833V17.9412C52.8938 17.9748 52.8892 18.0086 52.8776 18.0403C52.8659 18.0719 52.8476 18.1006 52.8237 18.1244C52.7999 18.1483 52.7712 18.1666 52.7395 18.1783C52.7079 18.1899 52.6741 18.1946 52.6405 18.1919H51.3278C51.2952 18.1919 51.2628 18.1853 51.2328 18.1727C51.2027 18.16 51.1755 18.1415 51.1527 18.1181C51.1299 18.0948 51.112 18.0671 51.1 18.0367C51.0881 18.0063 51.0823 17.9739 51.0831 17.9412V10.1365C51.0831 9.68893 51.7395 9.48009 51.7395 9.48009H59.9501C60.6064 9.48009 60.7675 10.3035 60.7675 10.3035V17.9412C60.7675 18.2277 60.5229 18.1919 60.5229 18.1919ZM48.589 14.737H43.529V15.9721C43.529 16.4137 44.1257 16.5688 44.1257 16.5688H48.2309C48.3261 16.5752 48.419 16.6007 48.5041 16.6438C48.5892 16.6868 48.6647 16.7466 48.7262 16.8195C48.7262 16.8195 49.0842 17.5653 49.2155 17.8875C49.3468 18.2098 48.9708 18.2157 48.9708 18.2157H42.7891C42.0492 18.2157 41.8881 17.3087 41.8881 17.3087V10.3214C41.8881 9.92165 42.4848 9.72474 42.4848 9.72474H48.6188C49.2155 9.72474 49.3587 10.4587 49.3587 10.4587V13.9971C49.3587 14.5938 48.6188 14.731 48.6188 14.731L48.589 14.737ZM47.6879 11.7833C47.6879 11.7833 47.6342 11.3716 47.2762 11.3716H43.9407C43.9407 11.3716 43.529 11.479 43.529 11.7833V12.7082C43.529 12.7623 43.5396 12.8158 43.5603 12.8658C43.581 12.9157 43.6113 12.9611 43.6496 12.9993C43.6878 13.0376 43.7332 13.0679 43.7831 13.0886C43.8331 13.1093 43.8866 13.1199 43.9407 13.1199H47.3061C47.4185 13.0921 47.5192 13.029 47.5933 12.9399C47.6674 12.8508 47.711 12.7404 47.7178 12.6247V11.7833H47.6879ZM40.6648 18.1919H37.5381C36.9073 18.1619 36.3091 17.903 35.8554 17.4636C35.4018 17.0243 35.1239 16.4346 35.0738 15.8051C35.0738 13.472 35.0738 6.19826 35.0738 6.19826H36.5536C36.6185 6.19574 36.6833 6.20668 36.7438 6.23038C36.8043 6.25408 36.8592 6.29003 36.9052 6.33597C36.9511 6.38192 36.9871 6.43687 37.0108 6.49737C37.0345 6.55787 37.0454 6.62262 37.0429 6.68755V15.3158C37.1353 15.563 37.2898 15.7824 37.4915 15.9527C37.6932 16.123 37.9353 16.2386 38.1945 16.2884H39.5072C39.5072 16.2884 39.9369 16.1512 40.2471 16.7001L40.9035 17.8517C40.9035 17.8517 40.9512 18.1799 40.6589 18.1799L40.6648 18.1919ZM24.8166 17.6966V6.85463C24.8102 6.72376 24.847 6.59443 24.9214 6.48659C24.9958 6.37874 25.1037 6.29839 25.2283 6.25793H32.9376C33.3732 6.25793 33.1882 6.75319 33.1882 6.75319C33.1882 6.75319 32.9436 7.42149 32.7765 7.73774C32.7298 7.83093 32.6595 7.91027 32.5726 7.96785C32.4857 8.02543 32.3853 8.05924 32.2812 8.06592H27.275C27.1549 8.05592 27.0357 8.09347 26.9431 8.17048C26.8505 8.24749 26.7918 8.35779 26.7797 8.47764V11.1866H32.4483C32.7765 11.1866 32.6094 11.5984 32.6094 11.5984C32.6094 11.5984 32.1858 12.5053 32.0127 12.75C31.9544 12.8259 31.8794 12.8874 31.7935 12.9298C31.7077 12.9722 31.6132 12.9944 31.5175 12.9946H26.7439V15.8707C26.7507 15.9864 26.7943 16.0969 26.8684 16.186C26.9425 16.2751 27.0431 16.3382 27.1556 16.366H32.4125C32.5089 16.3557 32.6063 16.3733 32.693 16.4167C32.7797 16.46 32.8522 16.5273 32.9018 16.6106L33.6417 17.7622C33.8625 18.0964 33.5582 18.174 33.5582 18.174H25.3059C24.9598 18.1919 24.8106 17.6966 24.8106 17.6966H24.8166ZM19.9595 17.0164C19.9595 17.9532 19.4642 18.168 19.4642 18.168C19.4642 18.168 11.021 23.037 10.472 23.3473C10.3315 23.4186 10.1761 23.4558 10.0185 23.4558C9.86092 23.4558 9.70555 23.4186 9.56501 23.3473C9.56501 23.3473 0.739877 18.2277 0.417661 18.0009C0.320853 17.9333 0.240901 17.8443 0.183993 17.7408C0.127084 17.6374 0.0947451 17.5222 0.0894775 17.4042C0.0894775 17.4042 0.0894775 7.26038 0.0894775 6.79496C0.0894775 6.32953 0.686174 6.00135 0.686174 6.00135L9.48744 0.899598C9.65324 0.816633 9.83609 0.773437 10.0215 0.773438C10.2069 0.773437 10.3897 0.816633 10.5555 0.899598C10.5555 0.899598 18.3484 5.42852 19.1838 5.91781C19.4203 6.01995 19.6192 6.19315 19.7528 6.41341C19.8865 6.63366 19.9483 6.89005 19.9296 7.14701C19.9296 7.14701 19.9296 16.1392 19.9296 17.0164H19.9595ZM16.439 6.87253C14.6489 5.83428 10.3765 3.36992 10.3765 3.36992C10.2459 3.30477 10.1019 3.27086 9.95585 3.27086C9.80985 3.27086 9.66584 3.30477 9.53518 3.36992L2.60754 7.33795C2.60754 7.33795 2.14808 7.61243 2.15405 7.98238C2.16001 8.35233 2.15405 16.2884 2.15405 16.2884C2.16061 16.3774 2.18707 16.4639 2.23148 16.5413C2.27588 16.6188 2.3371 16.6853 2.41063 16.7359C2.66721 16.9149 9.57098 20.9128 9.57098 20.9128C9.68079 20.9693 9.80251 20.9988 9.92602 20.9988C10.0495 20.9988 10.1712 20.9693 10.2811 20.9128C10.7107 20.6741 17.334 16.8612 17.334 16.8612C17.334 16.8612 17.7219 16.6941 17.7219 15.9602C17.7219 15.7454 17.7219 14.922 17.7219 13.8897L9.95287 18.6036V16.8135C9.96624 16.5785 10.0258 16.3484 10.1282 16.1365C10.2306 15.9245 10.3738 15.7349 10.5496 15.5783L17.4474 11.4015C17.6473 11.1537 17.7623 10.8483 17.7756 10.5303C17.7756 9.77247 17.7756 9.11611 17.7756 8.69842L9.95287 13.4243V11.5148C9.94514 11.3103 9.986 11.1069 10.0721 10.9212C10.1582 10.7356 10.287 10.573 10.4481 10.4467L16.439 6.87253Z" fill="#409EFF"/>
<path fill-rule="evenodd" clip-rule="evenodd" d="M89.7848 7.46323H88.4482V4.47974C88.4482 4.41411 88.5198 4.35444 88.6213 4.33654L89.4805 4.1814C89.6357 4.1814 89.7848 4.22317 89.7848 4.3246V7.46323Z" fill="#409EFF"/>
<path fill-rule="evenodd" clip-rule="evenodd" d="M88.4482 6.14453H89.7848V9.19365C89.7848 9.25929 89.7192 9.31896 89.6178 9.34282L88.7526 9.49796C88.5974 9.5278 88.4482 9.4562 88.4482 9.35476V6.14453Z" fill="#409EFF"/>
<path d="M86.6641 6.14453H91.569C91.6323 6.14453 91.693 6.16968 91.7377 6.21444C91.7825 6.2592 91.8076 6.31991 91.8076 6.38321V7.4871H86.4374V6.35934C86.4431 6.30227 86.4691 6.24914 86.5107 6.2097C86.5524 6.17025 86.6068 6.14712 86.6641 6.14453Z" fill="#409EFF"/>
</svg>
