<svg width="33" height="37" viewBox="0 0 33 37" fill="none" xmlns="http://www.w3.org/2000/svg">
<path d="M2.91531 32.7084L0 0H32.0684L29.1531 32.7084L15.9986 36.4058" fill="#E34F26"/>
<path d="M16.0698 33.5616L26.6644 30.6463L29.1531 2.63086H16.0698" fill="#EF652A"/>
<path d="M16.0698 14.7901H10.7369L10.3814 10.666H16.0698V6.68408H15.9987H5.97284L6.04394 7.75066L7.03942 18.8431H16.0698V14.7901ZM16.0698 25.2425H15.9987L11.519 24.0337L11.2346 20.834H9.10146H7.25273L7.75047 27.1624L15.9987 29.4377H16.0698V25.2425Z" fill="#EBEBEB"/>
<path d="M15.9987 14.7901V18.8431H20.976L20.4783 24.0337L15.9987 25.2425V29.4377L24.2469 27.1624L24.318 26.4513L25.2423 15.8566L25.3845 14.7901H24.2469H15.9987ZM15.9987 6.68408V9.17276V10.666H25.7401L25.8112 9.81271L26.0245 7.75066L26.0956 6.68408H15.9987Z" fill="white"/>
</svg>
