<svg width="58" height="30" viewBox="0 0 58 30" fill="none" xmlns="http://www.w3.org/2000/svg">
<path d="M4.59731 6.83032H13.0728C15.5604 6.85121 17.363 7.56844 18.4806 8.98082C19.5983 10.3932 19.967 12.3223 19.5875 14.7682C19.4401 15.8858 19.1131 16.9819 18.6071 18.0572C18.122 19.1324 17.4478 20.102 16.5832 20.9667C15.5288 22.0628 14.401 22.7585 13.1993 23.0539C11.9975 23.3493 10.7534 23.4966 9.46755 23.4966H5.67256L4.47081 29.5054H0.0749512L4.59731 6.83032ZM8.29743 10.4356L6.39993 19.923C6.52643 19.9439 6.65293 19.9547 6.77943 19.9547C6.92682 19.9547 7.0748 19.9547 7.22218 19.9547C9.24617 19.9755 10.933 19.7756 12.2822 19.3538C13.6313 18.911 14.5383 17.3722 15.0019 14.7365C15.3814 12.5228 15.0019 11.2471 13.8634 10.9099C12.7458 10.5728 11.3442 10.4147 9.6573 10.4356C9.4043 10.4564 9.16204 10.4672 8.92992 10.4672C8.71929 10.4672 8.49792 10.4672 8.2658 10.4672L8.29743 10.4356Z" fill="black"/>
<path d="M24.595 0.790039H28.9592L27.7259 6.8304H31.6474C33.7978 6.87276 35.4 7.31551 36.4543 8.15864C37.5296 9.00177 37.8458 10.6045 37.4031 12.9656L35.2842 23.4967H30.8567L32.8807 13.44C33.0914 12.3856 33.0281 11.6374 32.691 11.1946C32.3538 10.7519 31.6265 10.5305 30.5089 10.5305L26.9985 10.4989L24.4053 23.4967H20.041L24.595 0.790039Z" fill="black"/>
<path d="M42.0896 6.83032H50.5651C53.0527 6.85121 54.8553 7.56844 55.973 8.98082C57.0906 10.3932 57.4593 12.3223 57.0798 14.7682C56.9324 15.8858 56.6055 16.9819 56.0995 18.0572C55.6143 19.1324 54.9401 20.102 54.0755 20.9667C53.0211 22.0628 51.8933 22.7585 50.6916 23.0539C49.4899 23.3493 48.2457 23.4966 46.9599 23.4966H43.1649L41.9631 29.5054H37.5673L42.0896 6.83032ZM45.7897 10.4356L43.8922 19.923C44.0187 19.9439 44.1452 19.9547 44.2717 19.9547C44.4191 19.9547 44.5671 19.9547 44.7145 19.9547C46.7385 19.9755 48.4253 19.7756 49.7745 19.3538C51.1236 18.911 52.0306 17.3722 52.4942 14.7365C52.8737 12.5228 52.4942 11.2471 51.3557 10.9099C50.2381 10.5728 48.8365 10.4147 47.1496 10.4356C46.8966 10.4564 46.6543 10.4672 46.4222 10.4672C46.2116 10.4672 45.9902 10.4672 45.7581 10.4672L45.7897 10.4356Z" fill="black"/>
</svg>
