<svg width="51" height="39" viewBox="0 0 51 39" fill="none" xmlns="http://www.w3.org/2000/svg">
<path fill-rule="evenodd" clip-rule="evenodd" d="M50.9969 28.2266C50.9133 30.3506 48.9635 31.2255 48.6011 31.2869C48.3377 31.3313 48.1949 31.3391 48.1575 31.1326C48.1316 30.9907 48.2259 30.9241 48.5346 30.7333C48.8433 30.5424 49.7671 29.9097 49.9321 28.759C50.0971 27.6082 49.2334 24.8589 44.83 24.3446C42.7776 24.1047 41.1661 24.3931 39.9216 24.9116C40.1527 25.5106 40.3227 26.134 40.3491 26.7625C40.4064 28.1425 39.4543 29.162 38.4635 29.8903C37.8863 30.3146 37.2684 30.5988 36.754 30.7693C36.3409 30.944 35.7914 31.1224 35.4023 31.0438C34.5436 30.8705 34.0856 30.108 34.6702 28.4262C34.9863 27.5167 35.8972 26.1303 37.3654 24.9375C37.0295 24.2484 36.6565 23.5464 36.467 22.9027C36.2179 22.0546 36.0553 21.3743 35.979 20.8618C35.1716 22.5343 34.2473 24.1315 33.2061 25.6534C33.1156 25.7855 33.0254 25.9159 32.9358 26.0453C33.2426 26.7565 33.4848 27.5103 33.5167 28.271C33.574 29.6509 32.9769 30.6926 31.9861 31.4209C31.4495 31.8151 30.8774 32.0883 30.3866 32.262C30.0714 32.3993 29.4327 32.6244 28.5255 32.6854C28.0278 32.7191 27.5513 32.6877 27.2833 32.4857C26.9168 32.2094 26.8715 31.8655 27.0614 31.3988C27.2227 31.0022 28.4252 29.6287 29.435 28.4262C29.7132 28.0949 29.979 27.7552 30.2165 27.4405C30.2142 27.4349 30.2124 27.4308 30.2114 27.428C30.333 27.2704 30.4929 27.0541 30.6907 26.7796C30.3219 25.9866 29.8546 25.1593 29.6347 24.4111C29.3856 23.5631 29.2229 22.8828 29.1466 22.3703C28.3286 24.4675 27.4931 26.353 26.64 28.0269C25.6496 29.9703 24.9896 31.1487 24.6916 31.6659C24.6902 31.6751 24.6888 31.6821 24.6879 31.6871C24.6587 31.737 24.6185 31.8013 24.5672 31.8798C24.5423 31.9224 24.5233 31.9543 24.5104 31.9755C24.5104 31.9755 24.5095 31.9709 24.509 31.9672C24.1772 32.4571 23.4322 33.4174 22.6914 33.4174C21.3364 33.4174 20.9075 32.0421 21.4048 29.2914C21.0083 30.3095 20.5868 31.256 20.1403 32.1308C19.5941 33.2007 19.0982 34.1051 18.0108 34.1051C17.697 34.1051 17.202 34.0958 16.7907 33.7058C15.8562 32.8199 15.1422 30.5678 15.2823 28.8255C15.4015 27.3425 15.6303 26.3156 15.9431 25.4588C15.3844 25.7629 14.7402 26.1224 14.0844 26.5074C13.7479 26.7047 13.4087 26.9053 13.076 27.1022C13.0866 27.1221 13.0982 27.1419 13.1083 27.1618C13.9439 28.7756 14.1662 32.3106 12.3458 35.0257C10.5249 37.7412 7.13741 39.3939 3.83584 38.4751C2.77013 38.1784 1.16093 35.9763 2.54922 32.9072C3.77345 30.2013 8.66665 27.6401 9.95557 27.0028C10.0637 26.9432 10.1829 26.8771 10.3096 26.8073C7.73912 24.5595 1.31945 21.5264 0.419653 16.8689C0.166397 15.5582 0.781051 12.4207 4.63442 8.81646C7.87545 5.78478 12.3828 3.46342 16.5467 1.98409C23.5431 -0.501329 30.9352 0.964136 32.072 5.42246C33.19 9.80591 29.3842 15.0503 24.5104 16.9354C20.1588 18.6186 16.5606 18.3524 15.0826 17.8671C13.4023 17.3158 12.417 16.2071 12.1766 15.5823C12.0824 15.3373 11.9197 14.926 12.1766 14.7837C12.3342 14.6963 12.3976 14.7171 12.82 15.183C13.2216 15.6253 14.8349 16.813 17.8999 16.4696C25.9435 15.5679 30.7882 9.31788 29.2576 5.95485C28.1858 3.60114 21.9852 2.53867 14.2397 6.39851C4.78416 11.1101 4.27164 14.9944 4.19076 16.4696C3.96893 20.5272 9.19858 22.6623 12.0278 25.6802C12.0648 25.7199 12.1004 25.7601 12.1364 25.7999C12.667 25.5078 13.2257 25.2 13.7738 24.8991C15.2005 24.1153 16.5448 23.3814 17.1734 23.0385C18.1688 21.5925 20.1903 19.9967 21.6488 19.9967C23.2044 19.9967 23.7146 21.1132 23.1794 23.3463C23.2108 23.2437 23.2478 23.192 23.2903 23.191C23.356 23.1897 23.6124 22.7497 24.3329 23.0136C25.0738 23.2849 24.9051 23.8038 24.9097 23.8565C24.9185 23.9591 24.0353 26.9377 23.6674 28.8477C23.4918 29.7586 23.5944 30.4227 23.6453 30.4227C23.7183 30.4227 23.8657 30.1912 24.0034 29.9416C24.002 29.9388 24.0011 29.9365 24.0002 29.9347C24.069 29.8094 24.161 29.6334 24.277 29.4074C24.2913 29.3773 24.3024 29.3533 24.3108 29.3357L24.3121 29.338C24.5146 28.9388 24.8015 28.3551 25.1315 27.6276C25.7785 26.2005 28.2496 20.6945 28.459 20.0854C28.6679 19.4763 28.7779 18.8464 28.8804 18.577C28.983 18.3075 29.856 18.1037 30.8769 18.1111C31.8978 18.1185 32.0009 18.5529 32.0083 18.6435C32.0156 18.7341 31.5221 19.9422 31.4093 20.7953C31.2965 21.6484 31.4047 22.0754 31.498 22.7917C31.559 23.2618 31.853 23.8561 32.1977 24.5299C33.2537 22.8028 35.1125 19.5027 35.2913 18.577C35.4133 17.9443 35.6102 17.338 35.7128 17.0685C35.8154 16.7991 36.6884 16.5953 37.7093 16.6027C38.7302 16.6101 38.8332 17.0445 38.8406 17.1351C38.848 17.2257 38.3544 18.4337 38.2417 19.2868C38.1289 20.14 38.2371 20.567 38.3304 21.2833C38.4104 21.8966 38.8859 22.7215 39.3559 23.6597C40.6407 23.0261 42.1732 22.6013 43.9427 22.5921C48.5193 22.5676 51.1027 25.53 50.9969 28.2266ZM11.513 27.8453C11.4354 27.892 11.36 27.9368 11.287 27.9807L11.2884 27.983C11.2648 27.9964 11.232 28.0149 11.19 28.039C10.8101 28.2663 10.4977 28.454 10.2851 28.582C9.35109 29.1657 7.94293 30.1135 6.8518 31.1427C5.06191 32.8309 4.68803 35.1736 5.63173 35.7207C6.50565 36.2273 8.54325 35.626 10.0018 34.0348C11.5329 32.3646 12.1642 30.2489 11.513 27.8453ZM21.9141 22.1309C21.701 21.7695 20.8243 22.0606 20.0285 22.9512C19.534 23.5048 18.6924 24.9306 18.2982 26.1234C17.5154 28.4942 17.8536 30.9024 18.4091 31.048C19.0561 31.2181 20.1195 28.0496 20.6274 26.811C20.9459 26.0346 22.1853 22.5907 21.9141 22.1309ZM31.3862 28.2451C31.3862 28.2044 31.3848 28.1633 31.382 28.1217C31.0645 28.5367 30.7725 28.9082 30.5211 29.2211C30.2327 29.5797 29.7225 30.1528 28.9904 30.9403C28.8865 31.0392 28.8569 31.1021 28.9017 31.1289C28.9932 31.1834 29.191 31.1127 29.4064 30.9999C30.0159 30.6159 31.383 29.6602 31.3862 28.2451ZM38.2186 26.7366C38.22 26.4695 38.1622 26.183 38.0665 25.8835C37.2439 26.6109 36.7707 27.3716 36.5636 27.8236C36.0349 28.9743 36.0086 29.3441 36.1689 29.4582C36.9375 29.1823 38.2079 28.5173 38.2186 26.7366Z" fill="#D265A2"/>
</svg>
